<svg width="26" height="23" viewBox="0 0 26 23" fill="none" xmlns="http://www.w3.org/2000/svg">
<path d="M12.8305 16.1187C11.0962 16.1187 9.43298 15.4297 8.20668 14.2034C6.98037 12.9771 6.29144 11.3139 6.29144 9.57963V1.65211C6.27336 1.40718 6.27336 1.16125 6.29144 0.916324C6.30024 0.839729 6.32418 0.765648 6.36187 0.69839C6.39956 0.631132 6.45025 0.572041 6.51099 0.524554C6.57173 0.477068 6.6413 0.442133 6.71567 0.421784C6.79003 0.401434 6.8677 0.396075 6.94416 0.406019C7.0997 0.423917 7.24187 0.502566 7.33968 0.624828C7.43749 0.74709 7.48301 0.903054 7.46633 1.05873C7.45417 1.25634 7.45417 1.45451 7.46633 1.65211V9.57963C7.5567 10.9345 8.15864 12.2043 9.15022 13.1319C10.1418 14.0596 11.4489 14.5757 12.8067 14.5757C14.1646 14.5757 15.4717 14.0596 16.4632 13.1319C17.4548 12.2043 18.0568 10.9345 18.1471 9.57963V1.65211C18.1593 1.45451 18.1593 1.25634 18.1471 1.05873C18.1282 0.901361 18.1726 0.742931 18.2706 0.618298C18.3685 0.493664 18.5119 0.413037 18.6693 0.394152C18.8267 0.375267 18.9851 0.419672 19.1097 0.517598C19.2344 0.615525 19.315 0.758951 19.3339 0.916324C19.352 1.16125 19.352 1.40718 19.3339 1.65211V9.57963C19.3339 11.3077 18.6499 12.9656 17.4312 14.1909C16.2126 15.4162 14.5585 16.1092 12.8305 16.1187Z" fill="white"/>
<path d="M19.417 8.85561C19.3073 8.85308 19.2005 8.82022 19.1084 8.76067L18.4676 8.3809C18.3322 8.29907 18.2349 8.16682 18.1971 8.01326C18.1593 7.85969 18.184 7.69738 18.2658 7.56204C18.3476 7.4267 18.4799 7.32941 18.6334 7.29158C18.787 7.25374 18.9493 7.27846 19.0847 7.36029L19.5712 7.65698C23.2383 7.53831 23.9385 3.19478 24.069 1.5808H1.58003C1.71057 3.20665 2.37515 7.51457 6.0897 7.65698L6.57627 7.36029C6.64328 7.31977 6.71762 7.29285 6.79504 7.28106C6.87246 7.26927 6.95144 7.27284 7.02748 7.29158C7.10352 7.31031 7.17512 7.34384 7.2382 7.39024C7.30128 7.43665 7.35461 7.49503 7.39513 7.56204C7.43565 7.62906 7.46257 7.7034 7.47436 7.78082C7.48615 7.85823 7.48258 7.93722 7.46384 8.01326C7.44511 8.08929 7.41158 8.1609 7.36518 8.22398C7.31877 8.28706 7.26039 8.34038 7.19338 8.3809L6.55253 8.76067C6.46043 8.82022 6.35362 8.85308 6.24397 8.85561C1.60376 8.85561 0.369537 3.70509 0.369537 0.98742C0.369537 0.830047 0.432054 0.679119 0.543334 0.567839C0.654613 0.456559 0.805541 0.394043 0.962915 0.394043H24.698C24.8554 0.394043 25.0063 0.456559 25.1176 0.567839C25.2289 0.679119 25.2914 0.830047 25.2914 0.98742C25.2914 3.70509 24.0572 8.85561 19.417 8.85561Z" fill="white"/>
<path d="M12.8305 22.7289C12.6731 22.7289 12.5222 22.6664 12.4109 22.5551C12.2996 22.4438 12.2371 22.2929 12.2371 22.1355V15.5253C12.2371 15.3679 12.2996 15.217 12.4109 15.1057C12.5222 14.9944 12.6731 14.9319 12.8305 14.9319C12.9878 14.9319 13.1388 14.9944 13.2501 15.1057C13.3613 15.217 13.4238 15.3679 13.4238 15.5253V22.1355C13.4238 22.2929 13.3613 22.4438 13.2501 22.5551C13.1388 22.6664 12.9878 22.7289 12.8305 22.7289Z" fill="white"/>
<path d="M19.4407 22.729H7.57314C7.41577 22.729 7.26484 22.6665 7.15356 22.5552C7.04228 22.4439 6.97977 22.293 6.97977 22.1356C6.97977 21.9782 7.04228 21.8273 7.15356 21.716C7.26484 21.6048 7.41577 21.5422 7.57314 21.5422H19.4407C19.5981 21.5422 19.749 21.6048 19.8603 21.716C19.9716 21.8273 20.0341 21.9782 20.0341 22.1356C20.0341 22.293 19.9716 22.4439 19.8603 22.5552C19.749 22.6665 19.5981 22.729 19.4407 22.729Z" fill="white"/>
</svg>
